<?xml version="1.0" encoding="UTF-8" standalone="no"?>
<svg
   xmlns:dc="http://purl.org/dc/elements/1.1/"
   xmlns:cc="http://web.resource.org/cc/"
   xmlns:rdf="http://www.w3.org/1999/02/22-rdf-syntax-ns#"
   xmlns:svg="http://www.w3.org/2000/svg"
   xmlns="http://www.w3.org/2000/svg"
   xmlns:sodipodi="http://sodipodi.sourceforge.net/DTD/sodipodi-0.dtd"
   xmlns:inkscape="http://www.inkscape.org/namespaces/inkscape"
   sodipodi:docname="card_back.svg"
   inkscape:version="1.0beta2 (2b71d25, 2019-12-03)"
   sodipodi:version="0.32"
   id="svg2"
   xml:space="preserve"
   viewBox="0 0 167.0786133 242.6669922"
   height="242.6669922pt"
   width="167.0786133pt"><metadata
   id="metadata3444"><rdf:RDF><cc:Work
       rdf:about=""><dc:format>image/svg+xml</dc:format><dc:type
         rdf:resource="http://purl.org/dc/dcmitype/StillImage" /></cc:Work></rdf:RDF></metadata><defs
   id="defs3442" /><sodipodi:namedview
   inkscape:window-maximized="0"
   showgrid="false"
   inkscape:document-rotation="0"
   inkscape:current-layer="svg2"
   inkscape:window-y="25"
   inkscape:window-x="160"
   inkscape:cy="158.04052"
   inkscape:cx="184.45954"
   inkscape:zoom="1.3705286"
   id="base"
   pagecolor="#ffffff"
   bordercolor="#666666"
   borderopacity="1.0"
   inkscape:pageopacity="0.0"
   inkscape:pageshadow="2"
   inkscape:window-width="1280"
   inkscape:window-height="847" />

<g
   id="g1482"><g
     id="g1476"><path
       style="fill:#ffffff;fill-rule:nonzero;stroke:#000000;stroke-width:0.5;stroke-miterlimit:4"
       d="m 166.82861,235.54785 c 0,3.77539 -3.08593,6.86914 -6.86914,6.86914 H 7.1113298 c -3.7749023,0 -6.86132815,-3.09375 -6.86132815,-6.86914 V 7.1201183 c 0,-3.7749024 3.08642585,-6.8701172 6.86132815,-6.8701172 H 159.95947 c 3.78321,0 6.86914,3.0952148 6.86914,6.8701172 z"
       id="path5" /><rect
       ry="3.3563728"
       rx="3.3563728"
       y="8.4788589"
       x="8.5417709"
       height="225.70927"
       width="149.99507"
       id="rect12010"
       style="fill:#1e5a90;fill-opacity:1;fill-rule:evenodd;stroke:none;stroke-width:1.10196;stroke-miterlimit:4;stroke-dasharray:none;stroke-opacity:1" /><path
       style="fill-rule:evenodd;stroke:none;stroke-width:1.5"
       d="m 113.0223,122.97877 c -2.09896,5.67897 -14.379064,5.62951 -31.052384,5.67897 0,0 10.77346,-1.51788 13.88598,-7.51476 3.11464,-5.99268 6.782524,-18.14011 6.782524,-18.14011 -16.587824,-0.001 -18.065944,5.79265 -18.065944,5.79265 0,0 -10.484175,29.2265 -14.222795,40.00973 -29.048459,0 -24.406079,-14.30535 -24.406079,-14.30535 l 14.53004,-40.638151 h 29.438054 l -1.96592,5.85266 c 0,0 2.3988,-5.85266 18.623424,-5.85266 0,0 16.6332,0.0726 14.6789,5.8832 -1.95114,5.808451 -8.2258,23.233821 -8.2258,23.233821"
       id="Fill-19"
       fill="#FFFFFF" /></g></g></svg>
